<?xml version="1.0" standalone="no"?>
<!DOCTYPE svg PUBLIC "-//W3C//DTD SVG 20010904//EN"
 "http://www.w3.org/TR/2001/REC-SVG-20010904/DTD/svg10.dtd">
<svg version="1.0" xmlns="http://www.w3.org/2000/svg"
 width="279.000000pt" height="279.000000pt" viewBox="0 0 279.000000 279.000000"
 preserveAspectRatio="xMidYMid meet">
<metadata>
Created by potrace 1.11, written by Peter Selinger 2001-2013
</metadata>
<g transform="translate(0.000000,279.000000) scale(0.100000,-0.100000)"
fill="#000000" stroke="none">
<path d="M0 1395 l0 -1395 1395 0 1395 0 0 1395 0 1395 -1395 0 -1395 0 0
-1395z m1510 -465 l0 -460 -115 0 -115 0 0 460 0 460 115 0 115 0 0 -460z
m930 345 l0 -115 -230 0 -230 0 0 115 0 115 230 0 230 0 0 -115z m-470 -230
l0 -115 115 0 115 0 0 -115 0 -115 -225 0 -225 0 0 230 0 230 110 0 110 0 0
-115z m-930 -460 l0 -115 -110 0 -110 0 0 115 0 115 110 0 110 0 0 -115z
m1400 0 l0 -115 -115 0 -115 0 0 115 0 115 115 0 115 0 0 -115z m-1170 -235
l0 -120 -110 0 -110 0 0 120 0 120 110 0 110 0 0 -120z m930 0 l0 -120 -225 0
-225 0 0 120 0 120 225 0 225 0 0 -120z"/>
</g>
</svg>
